<svg width="290" height="58" viewBox="0 0 290 58" fill="none" xmlns="http://www.w3.org/2000/svg">
<path fill-rule="evenodd" clip-rule="evenodd" d="M0 27.4677L5.91526 20.7332L21.1515 35.6589C22.3025 34.7225 23.6233 33.7388 25.0667 32.7456L15.3495 19.6644L20.9817 15.758L29.7744 29.8324C32.4443 28.3663 35.4066 27.0042 38.652 25.9543L31.2556 2.70515L42.454 0L47.0862 24.0532C48.8598 23.8545 50.6429 23.7505 52.4354 23.76L56.5676 4.19015L64.6905 6.08187L58.8979 24.3653C65.0395 25.4909 70.1623 28.1204 74.2662 31.4214L90.0308 12.0881L93.3233 15.2189L77.0399 33.8617C80.2947 37.0682 82.7476 40.653 84.3986 44.0486L74.2945 49.9035C74.2945 49.9035 70.2001 40.2652 62.4923 34.4576C63.3791 36.5007 63.8603 38.7613 63.8603 41.1259C63.8603 50.4142 56.3035 58 47.0485 58C37.3029 58 29.5857 49.6197 30.265 39.9436L38.8596 40.984C37.6992 45.2688 40.9445 49.6954 45.5201 49.6954C49.2938 49.6954 52.426 46.593 52.426 42.7717C52.426 32.6037 40.8974 30.1161 32.6613 33.6158C27.5385 35.8007 23.4157 39.0072 17.7741 43.3676C12.0098 37.9573 6.0096 32.7551 0 27.4677Z" fill="#004394"/>
<path d="M128.414 30.6836C128.414 35.332 127.249 38.9453 124.918 41.5234C122.6 44.1016 119.312 45.3906 115.055 45.3906C110.745 45.3906 107.431 44.1146 105.113 41.5625C102.809 38.9974 101.656 35.3581 101.656 30.6445C101.656 25.931 102.815 22.3112 105.133 19.7852C107.464 17.2591 110.784 15.9961 115.094 15.9961C119.339 15.9961 122.62 17.2786 124.938 19.8438C127.255 22.4089 128.414 26.0221 128.414 30.6836ZM106.617 30.6836C106.617 34.1992 107.327 36.8685 108.746 38.6914C110.165 40.5013 112.268 41.4062 115.055 41.4062C117.828 41.4062 119.918 40.5078 121.324 38.7109C122.743 36.9141 123.453 34.2383 123.453 30.6836C123.453 27.181 122.75 24.5247 121.344 22.7148C119.951 20.9049 117.867 20 115.094 20C112.294 20 110.178 20.9049 108.746 22.7148C107.327 24.5247 106.617 27.181 106.617 30.6836ZM145.016 45.3906C142.281 45.3906 140.159 44.4076 138.648 42.4414H138.375C138.557 44.2643 138.648 45.3711 138.648 45.7617V54.6094H134.059V23.3984H137.77C137.874 23.8021 138.089 24.7656 138.414 26.2891H138.648C140.081 24.1016 142.229 23.0078 145.094 23.0078C147.789 23.0078 149.885 23.9844 151.383 25.9375C152.893 27.8906 153.648 30.6315 153.648 34.1602C153.648 37.6888 152.88 40.4427 151.344 42.4219C149.82 44.401 147.711 45.3906 145.016 45.3906ZM143.902 26.7578C142.079 26.7578 140.745 27.2917 139.898 28.3594C139.065 29.4271 138.648 31.1328 138.648 33.4766V34.1602C138.648 36.7904 139.065 38.6979 139.898 39.8828C140.732 41.0547 142.092 41.6406 143.98 41.6406C145.569 41.6406 146.793 40.9896 147.652 39.6875C148.512 38.3854 148.941 36.5299 148.941 34.1211C148.941 31.6992 148.512 29.8698 147.652 28.6328C146.806 27.3828 145.556 26.7578 143.902 26.7578ZM168.414 45.3906C165.055 45.3906 162.424 44.4141 160.523 42.4609C158.635 40.4948 157.691 37.793 157.691 34.3555C157.691 30.8268 158.57 28.0534 160.328 26.0352C162.086 24.0169 164.501 23.0078 167.574 23.0078C170.426 23.0078 172.678 23.8737 174.332 25.6055C175.986 27.3372 176.812 29.7201 176.812 32.7539V35.2344H162.418C162.483 37.3307 163.049 38.9453 164.117 40.0781C165.185 41.1979 166.689 41.7578 168.629 41.7578C169.905 41.7578 171.09 41.6406 172.184 41.4062C173.29 41.1589 174.475 40.7552 175.738 40.1953V43.9258C174.618 44.4596 173.486 44.8372 172.34 45.0586C171.194 45.2799 169.885 45.3906 168.414 45.3906ZM167.574 26.4844C166.116 26.4844 164.944 26.9466 164.059 27.8711C163.186 28.7956 162.665 30.1432 162.496 31.9141H172.301C172.275 30.1302 171.845 28.7826 171.012 27.8711C170.178 26.9466 169.033 26.4844 167.574 26.4844ZM201.031 45H196.422V31.7188C196.422 30.0521 196.083 28.8086 195.406 27.9883C194.742 27.168 193.681 26.7578 192.223 26.7578C190.283 26.7578 188.863 27.3307 187.965 28.4766C187.066 29.6224 186.617 31.543 186.617 34.2383V45H182.027V23.3984H185.621L186.266 26.2305H186.5C187.151 25.2018 188.076 24.4076 189.273 23.8477C190.471 23.2878 191.799 23.0078 193.258 23.0078C198.44 23.0078 201.031 25.6445 201.031 30.918V45ZM212.535 45H207.906V16.4453H224.02V20.3906H212.535V29.3164H223.297V33.2812H212.535V45ZM238.141 45.3906C234.781 45.3906 232.151 44.4141 230.25 42.4609C228.362 40.4948 227.418 37.793 227.418 34.3555C227.418 30.8268 228.297 28.0534 230.055 26.0352C231.812 24.0169 234.228 23.0078 237.301 23.0078C240.152 23.0078 242.405 23.8737 244.059 25.6055C245.712 27.3372 246.539 29.7201 246.539 32.7539V35.2344H232.145C232.21 37.3307 232.776 38.9453 233.844 40.0781C234.911 41.1979 236.415 41.7578 238.355 41.7578C239.632 41.7578 240.816 41.6406 241.91 41.4062C243.017 41.1589 244.202 40.7552 245.465 40.1953V43.9258C244.345 44.4596 243.212 44.8372 242.066 45.0586C240.921 45.2799 239.612 45.3906 238.141 45.3906ZM237.301 26.4844C235.842 26.4844 234.671 26.9466 233.785 27.8711C232.913 28.7956 232.392 30.1432 232.223 31.9141H242.027C242.001 30.1302 241.572 28.7826 240.738 27.8711C239.905 26.9466 238.759 26.4844 237.301 26.4844ZM266.266 38.8477C266.266 40.957 265.497 42.5781 263.961 43.7109C262.424 44.8307 260.224 45.3906 257.359 45.3906C254.482 45.3906 252.171 44.9544 250.426 44.082V40.1172C252.965 41.2891 255.328 41.875 257.516 41.875C260.341 41.875 261.754 41.0221 261.754 39.3164C261.754 38.7695 261.598 38.3138 261.285 37.9492C260.973 37.5846 260.458 37.207 259.742 36.8164C259.026 36.4258 258.03 35.9831 256.754 35.4883C254.267 34.5247 252.581 33.5612 251.695 32.5977C250.823 31.6341 250.387 30.3841 250.387 28.8477C250.387 26.9987 251.129 25.5664 252.613 24.5508C254.111 23.5221 256.142 23.0078 258.707 23.0078C261.246 23.0078 263.648 23.5221 265.914 24.5508L264.43 28.0078C262.099 27.0443 260.139 26.5625 258.551 26.5625C256.129 26.5625 254.918 27.2526 254.918 28.6328C254.918 29.3099 255.23 29.8828 255.855 30.3516C256.493 30.8203 257.874 31.4648 259.996 32.2852C261.78 32.9753 263.076 33.6068 263.883 34.1797C264.69 34.7526 265.289 35.4167 265.68 36.1719C266.07 36.9141 266.266 37.806 266.266 38.8477ZM279.293 41.6797C280.413 41.6797 281.533 41.5039 282.652 41.1523V44.6094C282.145 44.8307 281.487 45.013 280.68 45.1562C279.885 45.3125 279.059 45.3906 278.199 45.3906C273.85 45.3906 271.676 43.099 271.676 38.5156V26.875H268.727V24.8438L271.891 23.1641L273.453 18.5938H276.285V23.3984H282.438V26.875H276.285V38.4375C276.285 39.5443 276.559 40.3646 277.105 40.8984C277.665 41.4193 278.395 41.6797 279.293 41.6797Z" fill="#004394"/>
</svg>
